<mxfile host="app.diagrams.net" modified="2024-08-17T13:56:55.061Z" agent="Mozilla/5.0 (Windows NT 10.0; Win64; x64; rv:129.0) Gecko/20100101 Firefox/129.0" version="24.3.1" etag="PV2bCovXiz0VW6l5q9Gm" type="github">
  <diagram name="Page-1" id="kSqqJt_DifynuateJQDs">
    <mxGraphModel>
      <root>
        <mxCell id="0" />
        <mxCell id="1" parent="0" />
      </root>
    </mxGraphModel>
  </diagram>
</mxfile>
